<svg width="20" height="20" viewBox="0 0 20 20" fill="none" xmlns="http://www.w3.org/2000/svg">
<path d="M7.07101 12.929L2.5 17.5M13.1907 12.8135L14.5975 11.4066C14.916 11.0881 15.348 10.9092 15.7984 10.9092C17.3113 10.9092 18.069 9.07997 16.9992 8.01014L11.9898 3.0008C10.92 1.93098 9.09078 2.68867 9.09078 4.20163C9.09078 4.65203 8.91186 5.08398 8.59338 5.40246L7.18652 6.80932C6.86804 7.12779 6.43609 7.30671 5.98569 7.30671C4.47273 7.30671 3.71504 9.13595 4.78486 10.2058L9.79421 15.2151C10.864 16.2849 12.6933 15.5272 12.6933 14.0143C12.6933 13.5639 12.8722 13.1319 13.1907 12.8135Z" stroke="#373737" stroke-width="1.5" stroke-linecap="round"/>
</svg>
