<svg width="22" height="22" viewBox="0 0 22 22" fill="none" xmlns="http://www.w3.org/2000/svg">
<path d="M15.2259 18.3332C16.4548 18.3448 17.6423 17.8897 18.5488 17.0598C19.4552 16.2299 20.013 15.0871 20.1096 13.8619C20.2062 12.6367 19.8343 11.4205 19.0691 10.4589C18.3039 9.49722 17.2023 8.86172 15.9867 8.68067C14.575 0.119004 2.23029 3.364 5.1517 11.5113" stroke="#373737" stroke-width="1.5" stroke-linecap="round" stroke-linejoin="round"/>
<path d="M6.67263 11.8889C6.18811 11.6409 5.65032 11.515 5.10605 11.5223C4.23783 11.5756 3.42262 11.958 2.82668 12.5917C2.23073 13.2253 1.89893 14.0624 1.89893 14.9323C1.89893 15.8021 2.23073 16.6392 2.82668 17.2729C3.42262 17.9065 4.23783 18.289 5.10605 18.3423" stroke="#373737" stroke-width="1.5" stroke-linecap="round" stroke-linejoin="round"/>
<path d="M14.5015 9.06577C14.974 8.8277 15.4941 8.69923 16.0231 8.68994" stroke="#373737" stroke-width="1.5" stroke-linecap="round" stroke-linejoin="round"/>
<path d="M11.8893 18.3335H8.22266" stroke="#373737" stroke-width="1.5" stroke-linecap="round" stroke-linejoin="round"/>
<path d="M10.0557 20.1667V16.5" stroke="#373737" stroke-width="1.5" stroke-linecap="round" stroke-linejoin="round"/>
</svg>
