<svg width="11" height="11" viewBox="0 0 11 11" fill="none" xmlns="http://www.w3.org/2000/svg">
<path fill-rule="evenodd" clip-rule="evenodd" d="M9.30475 0.496528C8.64271 -0.165509 7.56933 -0.165509 6.9073 0.496528L5.84447 1.55935C5.88579 1.6428 5.93048 1.73059 5.9784 1.82162C6.30093 2.43426 6.75361 3.16127 7.29619 3.70384C7.83876 4.24642 8.56577 4.69909 9.17841 5.02163C9.26943 5.06955 9.35721 5.11422 9.44064 5.15554L10.5035 4.0927C11.1655 3.43067 11.1655 2.35729 10.5035 1.69525L9.30475 0.496528ZM8.6236 5.97257C7.97694 5.62903 7.16041 5.12371 6.51837 4.48166C5.87631 3.8396 5.37098 3.02305 5.02744 2.37639L0.847853 6.55597C0.588485 6.81534 0.420237 7.15184 0.368363 7.51495L0.00874561 10.0323C-0.0711694 10.5917 0.408321 11.0712 0.967726 10.9913L3.48505 10.6316C3.84816 10.5798 4.18466 10.4115 4.44403 10.1521L8.6236 5.97257Z" fill="#4D4D4D"/>
</svg>
