<svg width="20" height="20" viewBox="0 0 20 20" fill="none" xmlns="http://www.w3.org/2000/svg">
<path d="M17.6087 8.211C18.575 9.22772 18.575 10.7724 17.6087 11.7892C15.9788 13.504 13.1797 15.8334 10.0001 15.8334C6.82049 15.8334 4.02133 13.504 2.3915 11.7892C1.42516 10.7724 1.42516 9.22772 2.3915 8.211C4.02132 6.49619 6.82048 4.16675 10.0001 4.16675C13.1797 4.16675 15.9788 6.49619 17.6087 8.211Z" stroke="#373737" stroke-width="1.5"/>
<path d="M12.5001 10.0001C12.5001 11.3808 11.3808 12.5001 10.0001 12.5001C8.61937 12.5001 7.50008 11.3808 7.50008 10.0001C7.50008 8.61937 8.61937 7.50008 10.0001 7.50008C11.3808 7.50008 12.5001 8.61937 12.5001 10.0001Z" stroke="#373737" stroke-width="1.5"/>
</svg>
