<svg width="70" height="71" viewBox="0 0 70 71" fill="none" xmlns="http://www.w3.org/2000/svg">
<circle cx="35" cy="35" r="35" fill="#F5F5F5"/>
<path fill-rule="evenodd" clip-rule="evenodd" d="M34.5 35.5537C37.2546 35.5537 39.4626 33.3171 39.4626 30.5268C39.4626 27.7366 37.2546 25.5 34.5 25.5C31.7454 25.5 29.5374 27.7366 29.5374 30.5268C29.5374 33.3171 31.7454 35.5537 34.5 35.5537ZM34.5 38.0152C30.4542 38.0152 27 38.6621 27 41.2464C27 43.8298 30.4332 44.5 34.5 44.5C38.5448 44.5 42 43.8531 42 41.2687C42 38.6844 38.5668 38.0152 34.5 38.0152ZM44.8979 32.5879H46.101C46.5962 32.5879 47 32.9973 47 33.4995C47 34.0016 46.5962 34.4111 46.101 34.4111H44.8979V35.5884C44.8979 36.0906 44.4952 36.5 43.999 36.5C43.5038 36.5 43.1 36.0906 43.1 35.5884V34.4111H41.899C41.4027 34.4111 41 34.0016 41 33.4995C41 32.9973 41.4027 32.5879 41.899 32.5879H43.1V31.4116C43.1 30.9094 43.5038 30.5 43.999 30.5C44.4952 30.5 44.8979 30.9094 44.8979 31.4116V32.5879Z" fill="#373737"/>
</svg>
