<svg width="22" height="22" viewBox="0 0 22 22" fill="none" xmlns="http://www.w3.org/2000/svg">
<path d="M11.8619 11.001L16.3169 6.54597C16.417 6.42907 16.4694 6.27869 16.4634 6.12489C16.4575 5.97108 16.3937 5.82519 16.2849 5.71635C16.176 5.60752 16.0301 5.54376 15.8763 5.53782C15.7225 5.53188 15.5722 5.58419 15.4553 5.68431L11.0003 10.1393L6.54526 5.6782C6.42835 5.57808 6.27797 5.52577 6.12417 5.53171C5.97036 5.53765 5.82447 5.6014 5.71563 5.71024C5.6068 5.81908 5.54304 5.96497 5.5371 6.11877C5.53116 6.27258 5.58347 6.42296 5.68359 6.53986L10.1386 11.001L5.67748 15.456C5.61351 15.5108 5.56155 15.5782 5.52487 15.654C5.48819 15.7298 5.46757 15.8124 5.46432 15.8965C5.46107 15.9807 5.47525 16.0646 5.50598 16.1431C5.5367 16.2215 5.5833 16.2927 5.64286 16.3523C5.70241 16.4118 5.77364 16.4584 5.85206 16.4891C5.93048 16.5199 6.0144 16.534 6.09857 16.5308C6.18273 16.5275 6.26531 16.5069 6.34113 16.4702C6.41694 16.4336 6.48436 16.3816 6.53914 16.3176L11.0003 11.8626L15.4553 16.3176C15.5722 16.4178 15.7225 16.4701 15.8763 16.4641C16.0301 16.4582 16.176 16.3944 16.2849 16.2856C16.3937 16.1768 16.4575 16.0309 16.4634 15.8771C16.4694 15.7233 16.417 15.5729 16.3169 15.456L11.8619 11.001Z" fill="#212121"/>
</svg>
