<svg width="20" height="20" viewBox="0 0 20 20" fill="none" xmlns="http://www.w3.org/2000/svg">
<path d="M2.5 2.5L17.5 17.5" stroke="#373737" stroke-width="1.5" stroke-linecap="round" stroke-linejoin="round"/>
<path d="M8.81997 8.82251C8.50724 9.13502 8.33146 9.55897 8.3313 10.0011C8.33114 10.4432 8.50662 10.8673 8.81914 11.18C9.13165 11.4927 9.5556 11.6685 9.99771 11.6687C10.4398 11.6688 10.8639 11.4934 11.1766 11.1808" stroke="#373737" stroke-width="1.5" stroke-linecap="round" stroke-linejoin="round"/>
<path d="M7.80258 4.47072C8.5171 4.26632 9.25691 4.16392 10.0001 4.16655C13.3334 4.16655 16.1109 6.11072 18.3334 9.99989C17.6851 11.1341 16.9901 12.1032 16.2476 12.9066M14.4642 14.4574C13.1051 15.3741 11.6184 15.8332 10.0001 15.8332C6.66675 15.8332 3.88925 13.8891 1.66675 9.99989C2.80758 8.00405 4.09425 6.52072 5.52675 5.54905" stroke="#373737" stroke-width="1.5" stroke-linecap="round" stroke-linejoin="round"/>
</svg>
